<?xml version="1.0" encoding="UTF-8" standalone="no"?>
<!-- Created with Inkscape (http://www.inkscape.org/) -->

<svg
   xmlns:dc="http://purl.org/dc/elements/1.1/"
   xmlns:cc="http://creativecommons.org/ns#"
   xmlns:rdf="http://www.w3.org/1999/02/22-rdf-syntax-ns#"
   xmlns:svg="http://www.w3.org/2000/svg"
   xmlns="http://www.w3.org/2000/svg"
   xmlns:sodipodi="http://sodipodi.sourceforge.net/DTD/sodipodi-0.dtd"
   xmlns:inkscape="http://www.inkscape.org/namespaces/inkscape"
   version="1.1"
   id="svg866"
   width="133.33333"
   height="133.33333"
   viewBox="0 0 133.33333 133.33333"
   sodipodi:docname="numbers_counters.svg"
   inkscape:version="0.92.4 5da689c313, 2019-01-14">
  <metadata
     id="metadata872">
    <rdf:RDF>
      <cc:Work
         rdf:about="">
        <dc:format>image/svg+xml</dc:format>
        <dc:type
           rdf:resource="http://purl.org/dc/dcmitype/StillImage" />
        <dc:title></dc:title>
      </cc:Work>
    </rdf:RDF>
  </metadata>
  <defs
     id="defs870" />
  <sodipodi:namedview
     pagecolor="#ffffff"
     bordercolor="#666666"
     borderopacity="1"
     objecttolerance="10"
     gridtolerance="10"
     guidetolerance="10"
     inkscape:pageopacity="0"
     inkscape:pageshadow="2"
     inkscape:window-width="1366"
     inkscape:window-height="671"
     id="namedview868"
     showgrid="false"
     showguides="false"
     inkscape:zoom="3.3341767"
     inkscape:cx="67.549756"
     inkscape:cy="84.375848"
     inkscape:window-x="0"
     inkscape:window-y="27"
     inkscape:window-maximized="1"
     inkscape:current-layer="svg866" />
  <path
     style="fill:none;stroke:#ffffff;stroke-width:4.4031496;stroke-linecap:round;stroke-linejoin:round;stroke-miterlimit:4;stroke-dasharray:none;stroke-opacity:1"
     d="m 78.724876,129.72972 c -25.376515,-12.60132 -4.473631,-22.30359 4.158004,-14.41441 -0.43397,-7.08678 -0.563801,-13.59217 -4.158005,-22.453221 -7.64651,-27.425165 9.780126,-17.339324 13.305614,-3.049203 1.320014,4.250404 2.715393,9.055209 4.712404,13.582814 1.346998,-4.83421 7.900017,-10.457039 12.196807,-3.3264 4.11692,-4.322487 11.0479,-7.039939 14.13722,2.2176 1.54964,5.07671 2.76146,8.05927 1.9404,12.47401"
     id="path876"
     inkscape:connector-curvature="0"
     sodipodi:nodetypes="cccccccc" />
  <path
     style="fill:#ffffff;fill-opacity:1;stroke:#ffffff;stroke-width:2.80168176;stroke-linecap:butt;stroke-linejoin:round;stroke-miterlimit:4;stroke-dasharray:none;stroke-opacity:1"
     d="m 70.73742,99.50494 c -2.801296,1.08751 -5.602592,1.02794 -8.403888,-0.83795 l 2.399659,-14.27203 -0.185701,-10.68144 3.797583,0.01 -0.04733,14.70388 z"
     id="path878-3"
     inkscape:connector-curvature="0"
     sodipodi:nodetypes="ccccccc" />
  <path
     style="fill:none;stroke:#ffffff;stroke-width:2.13543296;stroke-linecap:butt;stroke-linejoin:miter;stroke-miterlimit:4;stroke-dasharray:none;stroke-opacity:1"
     d="M 64.54749,73.71352 C 60.918896,74.37468 62.363713,66.8262 57.349825,65.26481"
     id="path880-6"
     inkscape:connector-curvature="0"
     sodipodi:nodetypes="cc" />
  <path
     style="fill:none;stroke:#ffffff;stroke-width:2.13543296;stroke-linecap:butt;stroke-linejoin:miter;stroke-miterlimit:4;stroke-dasharray:none;stroke-opacity:1"
     d="m 65.943033,74.13522 c -1.297445,-7.42108 1.743958,-6.59736 -0.831601,-9.97921"
     id="path882-7"
     inkscape:connector-curvature="0"
     sodipodi:nodetypes="cc" />
  <path
     style="fill:none;stroke:#ffffff;stroke-width:1.37952757;stroke-linecap:butt;stroke-linejoin:miter;stroke-miterlimit:4;stroke-dasharray:none;stroke-opacity:1"
     d="m 68.345073,73.72302 c 2.068682,-2.53821 1.786815,-8.07646 2.311421,-10.38437"
     id="path884-5"
     inkscape:connector-curvature="0"
     sodipodi:nodetypes="cc" />
  <path
     style="fill:none;stroke:#ffffff;stroke-width:2.13543296;stroke-linecap:butt;stroke-linejoin:miter;stroke-miterlimit:4;stroke-dasharray:none;stroke-opacity:1"
     d="m 66.636034,76.35282 c 1.316691,-5.72095 9.228471,-0.15313 11.226611,-10.81081"
     id="path886-3"
     inkscape:connector-curvature="0"
     sodipodi:nodetypes="cc" />
  <path
     style="fill:none;stroke:#ffffff;stroke-width:1.37952757;stroke-linecap:round;stroke-linejoin:round;stroke-miterlimit:4;stroke-dasharray:none;stroke-opacity:1"
     d="m 48.618016,61.10681 c -0.1848,9.43185 11.272812,6.90204 9.42481,1.2474 2.199148,3.4743 9.323968,4.18732 8.038807,-2.4948 1.426018,4.36444 3.979402,4.78311 7.623008,1.386 -0.142646,9.88745 18.857979,2.63824 10.39501,-3.742204 3.821596,0.853254 9.52129,-12.888699 -0.693001,-14.553014 3.726192,-1.894654 0.23965,-16.663331 -8.177408,-9.702009 -2.089823,-9.500557 -10.0587,-7.625037 -11.781011,1.801801 -3.65801,-7.785618 -12.09281,-2.326078 -7.761608,7.207207 -5.934477,-3.80027 -11.427739,2.565785 -7.068607,9.42481 -5.000596,-0.01578 -6.941787,7.928209 0,9.424809 z"
     id="path888-5"
     inkscape:connector-curvature="0"
     sodipodi:nodetypes="ccccccccccc" />
  <path
     style="fill:#ffffff;fill-opacity:1;stroke:#ffffff;stroke-width:2.31169319;stroke-linecap:butt;stroke-linejoin:round;stroke-miterlimit:4;stroke-dasharray:none;stroke-opacity:1"
     d="m 107.14569,69.6476 c -2.23085,0.929692 -4.46172,0.878769 -6.69257,-0.716355 l 1.91101,-12.20099 -0.14789,-9.131439 3.02427,0.0081 -0.0377,12.570176 z"
     id="path878-2"
     inkscape:connector-curvature="0"
     sodipodi:nodetypes="ccccccc" />
  <path
     style="fill:none;stroke:#ffffff;stroke-width:1.76196516;stroke-linecap:butt;stroke-linejoin:miter;stroke-miterlimit:4;stroke-dasharray:none;stroke-opacity:1"
     d="m 102.21624,47.598816 c -2.889693,0.56522 -1.73909,-5.887891 -5.731996,-7.222702"
     id="path880-61"
     inkscape:connector-curvature="0"
     sodipodi:nodetypes="cc" />
  <path
     style="fill:none;stroke:#ffffff;stroke-width:1.76196516;stroke-linecap:butt;stroke-linejoin:miter;stroke-miterlimit:4;stroke-dasharray:none;stroke-opacity:1"
     d="m 103.32761,47.959322 c -1.03325,-6.344192 1.38883,-5.640011 -0.66226,-8.531109"
     id="path882-8"
     inkscape:connector-curvature="0"
     sodipodi:nodetypes="cc" />
  <path
     style="fill:none;stroke:#ffffff;stroke-width:1.13826072;stroke-linecap:butt;stroke-linejoin:miter;stroke-miterlimit:4;stroke-dasharray:none;stroke-opacity:1"
     d="m 105.24051,47.606938 c 1.64743,-2.169886 1.42296,-6.904477 1.84074,-8.877477"
     id="path884-7"
     inkscape:connector-curvature="0"
     sodipodi:nodetypes="cc" />
  <path
     style="fill:none;stroke:#ffffff;stroke-width:1.76196516;stroke-linecap:butt;stroke-linejoin:miter;stroke-miterlimit:4;stroke-dasharray:none;stroke-opacity:1"
     d="m 103.87949,49.855124 c 1.04857,-4.890775 7.34925,-0.130911 8.9405,-9.242036"
     id="path886-9"
     inkscape:connector-curvature="0"
     sodipodi:nodetypes="cc" />
  <path
     style="fill:none;stroke:#ffffff;stroke-width:1.13826072;stroke-linecap:round;stroke-linejoin:round;stroke-miterlimit:4;stroke-dasharray:none;stroke-opacity:1"
     d="m 89.530522,36.821486 c -0.147169,8.06318 8.977295,5.900472 7.505612,1.066389 1.751333,2.970134 7.425306,3.579691 6.401846,-2.132778 1.13564,3.731113 3.16907,4.089027 6.07072,1.184877 -0.1136,8.452661 15.01787,2.255404 8.27824,-3.199166 3.04339,0.729436 7.58245,-11.018398 -0.55189,-12.441201 2.96743,-1.619718 0.19085,-14.2452864 -6.51221,-8.294134 -1.66427,-8.1219146 -8.01042,-6.5185546 -9.38201,1.540338 -2.913123,-6.6558329 -9.630328,-1.988536 -6.181096,6.161358 -4.726028,-3.248807 -9.100682,2.193459 -5.629212,8.057159 -3.982311,-0.01349 -5.528212,6.777732 0,8.057158 z"
     id="path888-2"
     inkscape:connector-curvature="0"
     sodipodi:nodetypes="ccccccccccc" />
  <path
     style="fill:#ffffff;fill-opacity:1;stroke:#ffffff;stroke-width:2.31169319;stroke-linecap:butt;stroke-linejoin:round;stroke-miterlimit:4;stroke-dasharray:none;stroke-opacity:1"
     d="m 31.485599,79.068756 c -2.23085,0.92969 -4.46172,0.87877 -6.69257,-0.71636 l 1.91101,-12.20099 -0.14789,-9.13144 3.02427,0.008 -0.0377,12.57018 z"
     id="path878-2-0"
     inkscape:connector-curvature="0"
     sodipodi:nodetypes="ccccccc" />
  <path
     style="fill:none;stroke:#ffffff;stroke-width:1.76196516;stroke-linecap:butt;stroke-linejoin:miter;stroke-miterlimit:4;stroke-dasharray:none;stroke-opacity:1"
     d="m 26.556149,57.019966 c -2.88969,0.56522 -1.73909,-5.887888 -5.731991,-7.222699"
     id="path880-61-2"
     inkscape:connector-curvature="0"
     sodipodi:nodetypes="cc" />
  <path
     style="fill:none;stroke:#ffffff;stroke-width:1.76196516;stroke-linecap:butt;stroke-linejoin:miter;stroke-miterlimit:4;stroke-dasharray:none;stroke-opacity:1"
     d="m 27.667519,57.380476 c -1.03325,-6.344193 1.38883,-5.640012 -0.66226,-8.53111"
     id="path882-8-3"
     inkscape:connector-curvature="0"
     sodipodi:nodetypes="cc" />
  <path
     style="fill:none;stroke:#ffffff;stroke-width:1.13826072;stroke-linecap:butt;stroke-linejoin:miter;stroke-miterlimit:4;stroke-dasharray:none;stroke-opacity:1"
     d="m 29.580419,57.028086 c 1.64743,-2.16988 1.42296,-6.904472 1.84074,-8.877472"
     id="path884-7-7"
     inkscape:connector-curvature="0"
     sodipodi:nodetypes="cc" />
  <path
     style="fill:none;stroke:#ffffff;stroke-width:1.76196516;stroke-linecap:butt;stroke-linejoin:miter;stroke-miterlimit:4;stroke-dasharray:none;stroke-opacity:1"
     d="m 28.219399,59.276276 c 1.04857,-4.890774 7.34925,-0.13091 8.9405,-9.242035"
     id="path886-9-5"
     inkscape:connector-curvature="0"
     sodipodi:nodetypes="cc" />
  <path
     style="fill:none;stroke:#ffffff;stroke-width:1.13826072;stroke-linecap:round;stroke-linejoin:round;stroke-miterlimit:4;stroke-dasharray:none;stroke-opacity:1"
     d="m 13.870438,46.242639 c -0.14717,8.06318 8.977291,5.900472 7.50561,1.066389 1.751331,2.970134 7.425301,3.579691 6.401841,-2.132778 1.13564,3.731113 3.16907,4.089027 6.07072,1.184877 -0.1136,8.452659 15.017869,2.255404 8.278239,-3.199166 3.04339,0.729436 7.58245,-11.018398 -0.551889,-12.441201 2.967429,-1.619718 0.190849,-14.245287 -6.51221,-8.294135 -1.66427,-8.121914 -8.01042,-6.518554 -9.38201,1.540338 -2.91312,-6.655833 -9.630321,-1.988536 -6.181091,6.161359 -4.72603,-3.248807 -9.10068,2.193459 -5.62921,8.057159 -3.9823095,-0.01349 -5.5282095,6.777732 0,8.057158 z"
     id="path888-2-9"
     inkscape:connector-curvature="0"
     sodipodi:nodetypes="ccccccccccc" />
</svg>
