<?xml version="1.0" encoding="UTF-8" standalone="no"?>
<!-- Created with Inkscape (http://www.inkscape.org/) -->

<svg
   xmlns:dc="http://purl.org/dc/elements/1.1/"
   xmlns:cc="http://creativecommons.org/ns#"
   xmlns:rdf="http://www.w3.org/1999/02/22-rdf-syntax-ns#"
   xmlns:svg="http://www.w3.org/2000/svg"
   xmlns="http://www.w3.org/2000/svg"
   xmlns:sodipodi="http://sodipodi.sourceforge.net/DTD/sodipodi-0.dtd"
   xmlns:inkscape="http://www.inkscape.org/namespaces/inkscape"
   version="1.1"
   id="svg866"
   width="133.33333"
   height="133.33333"
   viewBox="0 0 133.33333 133.33333"
   sodipodi:docname="numbers_ordinal.svg"
   inkscape:version="0.92.4 5da689c313, 2019-01-14">
  <metadata
     id="metadata872">
    <rdf:RDF>
      <cc:Work
         rdf:about="">
        <dc:format>image/svg+xml</dc:format>
        <dc:type
           rdf:resource="http://purl.org/dc/dcmitype/StillImage" />
        <dc:title></dc:title>
      </cc:Work>
    </rdf:RDF>
  </metadata>
  <defs
     id="defs870" />
  <sodipodi:namedview
     pagecolor="#ffffff"
     bordercolor="#666666"
     borderopacity="1"
     objecttolerance="10"
     gridtolerance="10"
     guidetolerance="10"
     inkscape:pageopacity="0"
     inkscape:pageshadow="2"
     inkscape:window-width="1366"
     inkscape:window-height="671"
     id="namedview868"
     showgrid="false"
     showguides="false"
     inkscape:zoom="3.3341767"
     inkscape:cx="67.549756"
     inkscape:cy="84.375848"
     inkscape:window-x="0"
     inkscape:window-y="27"
     inkscape:window-maximized="1"
     inkscape:current-layer="svg866" />
  <path
     style="fill:#ffffff;fill-opacity:1;stroke:#ffffff;stroke-width:2.80168176;stroke-linecap:butt;stroke-linejoin:round;stroke-miterlimit:4;stroke-dasharray:none;stroke-opacity:1"
     d="m 71.521461,113.22566 c -2.801296,1.08751 -5.602592,1.02794 -8.403888,-0.83795 l 2.399659,-14.272037 -0.185701,-10.68144 3.797583,0.01 -0.04733,14.703877 z"
     id="path878-3"
     inkscape:connector-curvature="0"
     sodipodi:nodetypes="ccccccc" />
  <path
     style="fill:none;stroke:#ffffff;stroke-width:2.13543296;stroke-linecap:butt;stroke-linejoin:miter;stroke-miterlimit:4;stroke-dasharray:none;stroke-opacity:1"
     d="m 65.331531,87.434233 c -3.628594,0.66116 -2.183777,-6.88732 -7.197665,-8.44871"
     id="path880-6"
     inkscape:connector-curvature="0"
     sodipodi:nodetypes="cc" />
  <path
     style="fill:none;stroke:#ffffff;stroke-width:2.13543296;stroke-linecap:butt;stroke-linejoin:miter;stroke-miterlimit:4;stroke-dasharray:none;stroke-opacity:1"
     d="m 66.727074,87.855933 c -1.297445,-7.42108 1.743958,-6.59736 -0.831601,-9.97921"
     id="path882-7"
     inkscape:connector-curvature="0"
     sodipodi:nodetypes="cc" />
  <path
     style="fill:none;stroke:#ffffff;stroke-width:1.37952757;stroke-linecap:butt;stroke-linejoin:miter;stroke-miterlimit:4;stroke-dasharray:none;stroke-opacity:1"
     d="m 69.129114,87.443733 c 2.068682,-2.53821 1.786815,-8.07646 2.311421,-10.38437"
     id="path884-5"
     inkscape:connector-curvature="0"
     sodipodi:nodetypes="cc" />
  <path
     style="fill:none;stroke:#ffffff;stroke-width:2.13543296;stroke-linecap:butt;stroke-linejoin:miter;stroke-miterlimit:4;stroke-dasharray:none;stroke-opacity:1"
     d="m 67.420075,90.073533 c 1.316691,-5.72095 9.228471,-0.15313 11.226611,-10.81081"
     id="path886-3"
     inkscape:connector-curvature="0"
     sodipodi:nodetypes="cc" />
  <path
     style="fill:none;stroke:#ffffff;stroke-width:1.37952757;stroke-linecap:round;stroke-linejoin:round;stroke-miterlimit:4;stroke-dasharray:none;stroke-opacity:1"
     d="m 49.402057,74.827523 c -0.1848,9.43185 11.272812,6.90204 9.42481,1.2474 2.199148,3.4743 9.323968,4.18732 8.038807,-2.4948 1.426018,4.36444 3.979402,4.78311 7.623008,1.386 -0.142646,9.88745 18.857979,2.63824 10.39501,-3.742204 3.821596,0.853254 9.52129,-12.888699 -0.693001,-14.553014 3.726192,-1.894654 0.23965,-16.663331 -8.177408,-9.702009 -2.089823,-9.500557 -15.457334,-7.924961 -14.780252,1.201953 -3.65801,-7.785618 -16.291748,-0.07665 -9.411191,8.406903 -5.934477,-3.80027 -8.728422,6.764723 -2.419783,8.824962 -5.000596,-0.01578 -6.941787,7.928209 0,9.424809 z"
     id="path888-5"
     inkscape:connector-curvature="0"
     sodipodi:nodetypes="ccccccccccc" />
  <path
     style="fill:#ffffff;fill-opacity:1;stroke:#ffffff;stroke-width:2.31169319;stroke-linecap:butt;stroke-linejoin:round;stroke-miterlimit:4;stroke-dasharray:none;stroke-opacity:1"
     d="m 113.026,117.47409 c -2.23085,0.92969 -4.46172,0.87876 -6.69257,-0.71636 l 1.91101,-12.20099 -0.14789,-9.131438 3.02427,0.0081 -0.0377,12.570178 z"
     id="path878-2"
     inkscape:connector-curvature="0"
     sodipodi:nodetypes="ccccccc" />
  <path
     style="fill:none;stroke:#ffffff;stroke-width:1.76196516;stroke-linecap:butt;stroke-linejoin:miter;stroke-miterlimit:4;stroke-dasharray:none;stroke-opacity:1"
     d="m 108.09655,95.425302 c -2.8897,0.56522 -1.73909,-5.887891 -5.732,-7.222702"
     id="path880-61"
     inkscape:connector-curvature="0"
     sodipodi:nodetypes="cc" />
  <path
     style="fill:none;stroke:#ffffff;stroke-width:1.76196516;stroke-linecap:butt;stroke-linejoin:miter;stroke-miterlimit:4;stroke-dasharray:none;stroke-opacity:1"
     d="m 109.20792,95.785808 c -1.03325,-6.344192 1.38883,-5.640011 -0.66226,-8.531109"
     id="path882-8"
     inkscape:connector-curvature="0"
     sodipodi:nodetypes="cc" />
  <path
     style="fill:none;stroke:#ffffff;stroke-width:1.13826072;stroke-linecap:butt;stroke-linejoin:miter;stroke-miterlimit:4;stroke-dasharray:none;stroke-opacity:1"
     d="m 111.12082,95.433424 c 1.64743,-2.169886 1.42296,-6.904477 1.84074,-8.877477"
     id="path884-7"
     inkscape:connector-curvature="0"
     sodipodi:nodetypes="cc" />
  <path
     style="fill:none;stroke:#ffffff;stroke-width:1.76196516;stroke-linecap:butt;stroke-linejoin:miter;stroke-miterlimit:4;stroke-dasharray:none;stroke-opacity:1"
     d="m 109.7598,97.68161 c 1.04857,-4.890775 7.34925,-0.130911 8.9405,-9.242036"
     id="path886-9"
     inkscape:connector-curvature="0"
     sodipodi:nodetypes="cc" />
  <path
     style="fill:none;stroke:#ffffff;stroke-width:1.13826072;stroke-linecap:round;stroke-linejoin:round;stroke-miterlimit:4;stroke-dasharray:none;stroke-opacity:1"
     d="m 95.410828,84.647972 c -0.147169,8.06318 8.977292,5.900472 7.505612,1.066389 1.75133,2.970134 7.42531,3.579691 6.40185,-2.132778 1.13564,3.731113 3.16907,4.089027 6.07072,1.184877 -0.1136,8.452661 15.01787,2.255404 8.27824,-3.199166 3.04339,0.729436 7.58245,-11.018398 -0.55189,-12.441201 2.96743,-1.619718 0.19085,-14.245286 -6.51221,-8.294134 -1.66427,-8.121915 -8.01042,-6.518555 -9.38201,1.540338 -2.91313,-6.655833 -9.630332,-1.988536 -6.1811,6.161358 -4.726028,-3.248807 -9.100682,2.193459 -5.629212,8.057159 -3.982311,-0.01349 -5.528212,6.777732 0,8.057158 z"
     id="path888-2"
     inkscape:connector-curvature="0"
     sodipodi:nodetypes="ccccccccccc" />
  <path
     style="fill:#ffffff;fill-opacity:1;stroke:#ffffff;stroke-width:2.31169319;stroke-linecap:butt;stroke-linejoin:round;stroke-miterlimit:4;stroke-dasharray:none;stroke-opacity:1"
     d="m 26.781354,118.66281 c -2.23085,0.92969 -4.46172,0.87877 -6.69257,-0.71636 l 1.91101,-12.20099 -0.14789,-9.131436 3.02427,0.008 -0.0377,12.570176 z"
     id="path878-2-0"
     inkscape:connector-curvature="0"
     sodipodi:nodetypes="ccccccc" />
  <path
     style="fill:none;stroke:#ffffff;stroke-width:1.76196516;stroke-linecap:butt;stroke-linejoin:miter;stroke-miterlimit:4;stroke-dasharray:none;stroke-opacity:1"
     d="m 21.851904,96.614024 c -2.88969,0.56522 -1.73909,-5.887888 -5.731991,-7.222699"
     id="path880-61-2"
     inkscape:connector-curvature="0"
     sodipodi:nodetypes="cc" />
  <path
     style="fill:none;stroke:#ffffff;stroke-width:1.76196516;stroke-linecap:butt;stroke-linejoin:miter;stroke-miterlimit:4;stroke-dasharray:none;stroke-opacity:1"
     d="m 22.963274,96.974534 c -1.03325,-6.344193 1.38883,-5.640012 -0.66226,-8.53111"
     id="path882-8-3"
     inkscape:connector-curvature="0"
     sodipodi:nodetypes="cc" />
  <path
     style="fill:none;stroke:#ffffff;stroke-width:1.13826072;stroke-linecap:butt;stroke-linejoin:miter;stroke-miterlimit:4;stroke-dasharray:none;stroke-opacity:1"
     d="m 24.876174,96.622144 c 1.64743,-2.16988 1.42296,-6.904472 1.84074,-8.877472"
     id="path884-7-7"
     inkscape:connector-curvature="0"
     sodipodi:nodetypes="cc" />
  <path
     style="fill:none;stroke:#ffffff;stroke-width:1.76196516;stroke-linecap:butt;stroke-linejoin:miter;stroke-miterlimit:4;stroke-dasharray:none;stroke-opacity:1"
     d="m 23.515154,98.870334 c 1.04857,-4.890774 7.34925,-0.13091 8.9405,-9.242035"
     id="path886-9-5"
     inkscape:connector-curvature="0"
     sodipodi:nodetypes="cc" />
  <path
     style="fill:none;stroke:#ffffff;stroke-width:1.13826072;stroke-linecap:round;stroke-linejoin:round;stroke-miterlimit:4;stroke-dasharray:none;stroke-opacity:1"
     d="m 9.1661935,85.836697 c -0.14717,8.06318 8.9772905,5.900472 7.5056095,1.066389 1.751331,2.970134 7.425301,3.579691 6.401841,-2.132778 1.13564,3.731113 3.16907,4.089027 6.07072,1.184877 -0.1136,8.452659 15.017869,2.255404 8.278239,-3.199166 3.04339,0.729436 7.58245,-11.018398 -0.551889,-12.441201 2.967429,-1.619718 0.190849,-14.245287 -6.51221,-8.294135 -1.66427,-8.121914 -8.01042,-6.518554 -9.38201,1.540338 -2.91312,-6.655833 -9.630321,-1.988536 -6.181091,6.161359 -4.72603,-3.248807 -9.1006795,2.193459 -5.6292095,8.057159 -3.9823095,-0.01349 -5.5282095,6.777732 0,8.057158 z"
     id="path888-2-9"
     inkscape:connector-curvature="0"
     sodipodi:nodetypes="ccccccccccc" />
  <path
     style="fill:none;stroke:#ffffff;stroke-width:2;stroke-linecap:butt;stroke-linejoin:round;stroke-miterlimit:4;stroke-dasharray:none;stroke-opacity:1"
     d="m 61.608676,8.3421612 10.047458,1e-7 V 20.63905 l 9.747534,0.299924 -14.846244,13.496585 -15.29613,-12.896737 h 10.497344 z"
     id="path1019"
     inkscape:connector-curvature="0"
     sodipodi:nodetypes="cccccccc" />
</svg>
